<svg width="69" height="30" viewBox="0 0 69 30" fill="none" xmlns="http://www.w3.org/2000/svg">
<path d="M23.3059 23.335V22.1946C24.7954 20.7051 26.0599 19.4018 27.0994 18.2848C28.1389 17.1521 28.9302 16.1359 29.4732 15.236C30.0163 14.3206 30.2878 13.4673 30.2878 12.676C30.2878 11.8227 30.055 11.1245 29.5896 10.5814C29.1241 10.0384 28.4182 9.76689 27.4718 9.76689C26.8511 9.76689 26.2771 9.94531 25.7496 10.3022C25.222 10.6435 24.7411 11.0624 24.3066 11.5589L23.2128 10.4651C23.8334 9.7824 24.4928 9.23937 25.191 8.83597C25.9047 8.41706 26.7425 8.20761 27.7045 8.20761C29.0853 8.20761 30.1714 8.611 30.9627 9.41779C31.754 10.2091 32.1496 11.2641 32.1496 12.5829C32.1496 13.5138 31.8858 14.4602 31.3583 15.4222C30.8463 16.3686 30.1326 17.3694 29.2172 18.4244C28.3173 19.4639 27.2778 20.5965 26.0987 21.8222C26.5021 21.7912 26.921 21.7602 27.3554 21.7291C27.7898 21.6981 28.201 21.6826 28.5889 21.6826H32.8943V23.335H23.3059ZM39.7382 23.6142C38.2487 23.6142 37.0773 22.9471 36.224 21.6128C35.3862 20.2629 34.9672 18.3468 34.9672 15.8644C34.9672 13.3664 35.3862 11.4658 36.224 10.1625C37.0773 8.85925 38.2487 8.20761 39.7382 8.20761C41.2121 8.20761 42.368 8.85925 43.2058 10.1625C44.0592 11.4658 44.4858 13.3664 44.4858 15.8644C44.4858 18.3468 44.0592 20.2629 43.2058 21.6128C42.368 22.9471 41.2121 23.6142 39.7382 23.6142ZM39.7382 22.0782C40.607 22.0782 41.3052 21.5895 41.8327 20.612C42.3603 19.6191 42.624 18.0365 42.624 15.8644C42.624 13.6922 42.3603 12.133 41.8327 11.1865C41.3052 10.2246 40.607 9.74361 39.7382 9.74361C38.8693 9.74361 38.1634 10.2246 37.6204 11.1865C37.0928 12.133 36.8291 13.6922 36.8291 15.8644C36.8291 18.0365 37.0928 19.6191 37.6204 20.612C38.1634 21.5895 38.8693 22.0782 39.7382 22.0782ZM46.4424 23.335V22.1946C47.9319 20.7051 49.1964 19.4018 50.2359 18.2848C51.2754 17.1521 52.0667 16.1359 52.6097 15.236C53.1527 14.3206 53.4243 13.4673 53.4243 12.676C53.4243 11.8227 53.1915 11.1245 52.7261 10.5814C52.2606 10.0384 51.5547 9.76689 50.6082 9.76689C49.9876 9.76689 49.4136 9.94531 48.8861 10.3022C48.3585 10.6435 47.8776 11.0624 47.4431 11.5589L46.3493 10.4651C46.9699 9.7824 47.6293 9.23937 48.3275 8.83597C49.0412 8.41706 49.879 8.20761 50.841 8.20761C52.2218 8.20761 53.3079 8.611 54.0992 9.41779C54.8904 10.2091 55.2861 11.2641 55.2861 12.5829C55.2861 13.5138 55.0223 14.4602 54.4948 15.4222C53.9828 16.3686 53.2691 17.3694 52.3537 18.4244C51.4538 19.4639 50.4143 20.5965 49.2351 21.8222C49.6385 21.7912 50.0575 21.7602 50.4919 21.7291C50.9263 21.6981 51.3375 21.6826 51.7253 21.6826H56.0308V23.335H46.4424ZM58.9183 23.335V21.7524H62.3161V10.8142H59.6165V9.5807C60.2991 9.45658 60.8887 9.30919 61.3852 9.13852C61.8972 8.95234 62.3549 8.73512 62.7583 8.48688H64.2245V21.7524H67.2965V23.335H58.9183Z" fill="#394C5B"/>
<path d="M9.25119 6.9541C4.21053 6.9541 0.109375 11.0553 0.109375 16.0959C0.109375 21.1366 4.21053 25.2377 9.25119 25.2377C14.2918 25.2377 18.393 21.1366 18.393 16.0959C18.393 11.0553 14.2918 6.9541 9.25119 6.9541ZM9.25119 8.36053C13.5317 8.36053 16.9866 11.8154 16.9866 16.0959C16.9866 20.3764 13.5317 23.8313 9.25119 23.8313C4.97071 23.8313 1.51581 20.3764 1.51581 16.0959C1.51581 11.8154 4.97071 8.36053 9.25119 8.36053ZM9.18508 11.8766C6.84759 11.8766 4.96579 13.7584 4.96579 16.0959C4.96579 18.4334 6.84759 20.3152 9.18508 20.3152C10.8728 20.3152 12.3144 19.3026 12.9867 17.8751L11.7124 17.2822C11.2589 18.2463 10.3102 18.9088 9.18508 18.9088C7.58456 18.9088 6.37222 17.6964 6.37222 16.0959C6.37222 14.4954 7.58456 13.283 9.18508 13.283C10.3102 13.283 11.2596 13.9455 11.7124 14.9096L12.9874 14.3161C12.3151 12.8885 10.8728 11.8759 9.18508 11.8759V11.8766Z" fill="#394C5B"/>
</svg>
