<svg width="173" height="23" viewBox="0 0 173 23" fill="none" xmlns="http://www.w3.org/2000/svg">
<g opacity="0.33">
<path d="M63.8873 5.53868C63.7704 8.07286 61.9964 11.5427 58.5655 15.9483C55.0177 20.5488 52.0157 22.8491 49.5594 22.8491C48.0389 22.8491 46.7523 21.4456 45.6997 18.6385L43.5943 10.9189C42.8146 8.11185 41.9764 6.7083 41.0796 6.7083C40.8847 6.7083 40.2024 7.11767 39.0328 7.93641L37.8047 6.35742C39.0913 5.22678 40.3584 4.09614 41.606 2.96551C43.3214 1.48399 44.608 0.704244 45.4657 0.626265C47.4931 0.431331 48.7407 1.81538 49.2085 4.77842C49.7153 7.9754 50.0662 9.96377 50.2612 10.7435C50.846 13.3947 51.4893 14.7202 52.191 14.7202C52.7369 14.7202 53.5556 13.8625 54.6473 12.1471C55.7389 10.4316 56.3237 9.12555 56.4017 8.22883C56.5577 6.74731 55.9728 6.00655 54.6473 6.00655C54.0235 6.00655 53.3802 6.14301 52.7174 6.41593C54.004 2.24426 56.4602 0.216918 60.086 0.333887C62.7762 0.411866 64.0432 2.14681 63.8873 5.53872L63.8873 5.53868Z" fill="#37434E"/>
<path d="M13.0039 0.329102C0.868599 0.329102 0.656219 1.47359 0.656219 10.4121C0.656219 19.3507 0.868599 20.4951 13.0039 20.4951C25.1392 20.4951 25.3515 19.3507 25.3515 10.4121C25.3515 1.47359 25.1392 0.329102 13.0039 0.329102ZM16.9613 10.8495L11.4172 13.5942C10.9319 13.8325 10.5344 13.5654 10.5344 12.997V7.8272C10.5344 7.2602 10.9319 6.99175 11.4172 7.23008L16.9613 9.97475C17.4466 10.2157 17.4466 10.6085 16.9613 10.8495Z" fill="#37434E"/>
<path fill-rule="evenodd" clip-rule="evenodd" d="M76.3516 11.1028C76.3516 16.5921 80.3383 21.1567 85.5525 22.0823V14.1078H82.7922V11.0411H85.5525V8.58724C85.5525 5.82696 87.3311 4.29408 89.8466 4.29408C90.6434 4.29408 91.5028 4.41646 92.2996 4.53883V7.36076H90.8891C89.5393 7.36076 89.2329 8.03519 89.2329 8.89456V11.0411H92.1772L91.6868 14.1078H89.2329V22.0823C94.4471 21.1567 98.4338 16.593 98.4338 11.1028C98.4338 4.99612 93.4653 0 87.3927 0C81.3201 0 76.3516 4.99612 76.3516 11.1028Z" fill="#37434E"/>
<path d="M138.589 3.00039C137.57 3.4518 136.476 3.75681 135.325 3.89467C136.512 3.18436 137.4 2.06641 137.824 0.749425C136.709 1.41189 135.488 1.87819 134.215 2.12806C133.359 1.21409 132.225 0.608299 130.99 0.404734C129.754 0.201169 128.486 0.411222 127.382 1.00228C126.278 1.59334 125.4 2.53233 124.884 3.67348C124.369 4.81463 124.244 6.09408 124.53 7.3132C122.27 7.19973 120.06 6.61235 118.042 5.58918C116.023 4.56601 114.243 3.12991 112.816 1.37408C112.328 2.2159 112.047 3.19193 112.047 4.2314C112.046 5.16716 112.277 6.08858 112.718 6.91392C113.159 7.73926 113.797 8.443 114.575 8.96268C113.672 8.93397 112.79 8.69011 112.001 8.25141V8.32461C112.001 9.63705 112.455 10.9091 113.286 11.9249C114.117 12.9407 115.273 13.6378 116.56 13.8977C115.723 14.1243 114.845 14.1577 113.993 13.9953C114.356 15.1246 115.063 16.1121 116.015 16.8196C116.967 17.5271 118.117 17.9192 119.303 17.9409C117.289 19.5213 114.803 20.3786 112.243 20.3749C111.79 20.375 111.337 20.3485 110.887 20.2956C113.485 21.966 116.509 22.8525 119.598 22.8491C130.053 22.8491 135.769 14.1893 135.769 6.67878C135.769 6.43478 135.763 6.18833 135.752 5.94432C136.864 5.14029 137.824 4.14465 138.586 3.00405L138.589 3.00039Z" fill="#37434E"/>
<path d="M155.346 0.893555C152.979 0.893555 151.043 2.83 151.043 5.19613V18.5478C151.043 20.9138 152.979 22.8496 155.346 22.8496H168.697C171.063 22.8496 172.999 20.9139 172.999 18.5478V5.19613C172.999 2.83005 171.063 0.893555 168.697 0.893555H155.346ZM156.428 4.51675C157.562 4.51675 158.261 5.26152 158.283 6.2405C158.283 7.19788 157.562 7.96358 156.406 7.96358H156.384C155.272 7.96358 154.552 7.19792 154.552 6.2405C154.552 5.26154 155.293 4.51675 156.428 4.51675H156.428ZM166.204 9.09242C168.386 9.09242 170.022 10.5185 170.022 13.583V19.3039H166.706V13.9666C166.706 12.6253 166.226 11.7103 165.026 11.7103C164.11 11.7103 163.564 12.327 163.324 12.9228C163.237 13.136 163.215 13.4337 163.215 13.7319V19.3039H159.899C159.899 19.3039 159.943 10.2626 159.899 9.3264H163.216V10.7393C163.656 10.0595 164.445 9.0924 166.204 9.0924V9.09242ZM154.748 9.32712H158.064V19.304H154.748V9.32712Z" fill="#37434E"/>
</g>
</svg>
